<svg viewBox="0 0 520 500" xmlns="http://www.w3.org/2000/svg" role="img" aria-label="経営者と現場の認識ギャップを示すレーダーチャート">
  <rect width="520" height="500" fill="none"/>
  <polygon points="260.0,208.8 295.7,229.4 295.7,270.6 260.0,291.2 224.3,270.6 224.3,229.4" fill="none" stroke="#E5E5E5" stroke-width="1"/>
<polygon points="260.0,167.5 331.4,208.8 331.4,291.2 260.0,332.5 188.6,291.2 188.6,208.8" fill="none" stroke="#E5E5E5" stroke-width="1"/>
<polygon points="260.0,126.2 367.2,188.1 367.2,311.9 260.0,373.8 152.8,311.9 152.8,188.1" fill="none" stroke="#E5E5E5" stroke-width="1"/>
<polygon points="260.0,85.0 402.9,167.5 402.9,332.5 260.0,415.0 117.1,332.5 117.1,167.5" fill="none" stroke="#E5E5E5" stroke-width="1"/>

  <line x1="260" y1="250" x2="260.0" y2="85.0" stroke="#E5E5E5" stroke-width="1"/>
<line x1="260" y1="250" x2="402.9" y2="167.5" stroke="#E5E5E5" stroke-width="1"/>
<line x1="260" y1="250" x2="402.9" y2="332.5" stroke="#E5E5E5" stroke-width="1"/>
<line x1="260" y1="250" x2="260.0" y2="415.0" stroke="#E5E5E5" stroke-width="1"/>
<line x1="260" y1="250" x2="117.1" y2="332.5" stroke="#E5E5E5" stroke-width="1"/>
<line x1="260" y1="250" x2="117.1" y2="167.5" stroke="#E5E5E5" stroke-width="1"/>

  <polygon points="260.0,104.8 377.2,182.4 381.5,320.1 260.0,398.5 145.7,316.0 148.5,185.6" fill="rgba(230,0,35,0.12)" stroke="#E60023" stroke-width="2.5"/>
  <polygon points="260.0,147.7 338.6,204.6 345.7,299.5 260.0,335.8 177.1,297.9 188.6,208.8" fill="rgba(126,200,227,0.20)" stroke="#7EC8E3" stroke-width="2.5"/>
  <text x="260.0" y="55.3" font-size="13" font-weight="700" fill="#6B6B6B" text-anchor="middle" dominant-baseline="middle">前提条件</text>
<text x="428.6" y="152.7" font-size="13" font-weight="700" fill="#6B6B6B" text-anchor="start" dominant-baseline="middle">優先順位</text>
<text x="428.6" y="347.3" font-size="13" font-weight="700" fill="#6B6B6B" text-anchor="start" dominant-baseline="middle">意思決定基準</text>
<text x="260.0" y="444.7" font-size="13" font-weight="700" fill="#6B6B6B" text-anchor="middle" dominant-baseline="middle">期待値</text>
<text x="91.4" y="347.4" font-size="13" font-weight="700" fill="#6B6B6B" text-anchor="end" dominant-baseline="middle">評価基準</text>
<text x="91.4" y="152.6" font-size="13" font-weight="700" fill="#6B6B6B" text-anchor="end" dominant-baseline="middle">役割認識</text>

  <g font-family="sans-serif">
    <circle cx="360" cy="470" r="6" fill="#E60023"/><text x="372" y="474" font-size="13" font-weight="700" fill="#111">経営者</text>
    <circle cx="440" cy="470" r="6" fill="#7EC8E3"/><text x="452" y="474" font-size="13" font-weight="700" fill="#111">現場</text>
  </g>
</svg>